<svg width="29" height="29" viewBox="0 0 29 29" fill="none" xmlns="http://www.w3.org/2000/svg">
<rect x="0.5" y="0.5" width="28" height="28" rx="1.5" fill="white" fill-opacity="0.1" stroke="white"/>
<g clip-path="url(#clip0)">
<path d="M16.207 11.7969C16 11.7969 15.8323 11.9646 15.8323 12.1716V19.2535C15.8323 19.4604 16 19.6283 16.207 19.6283C16.4139 19.6283 16.5817 19.4604 16.5817 19.2535V12.1716C16.5817 11.9646 16.4139 11.7969 16.207 11.7969Z" fill="white"/>
<path d="M11.7854 11.7969C11.5784 11.7969 11.4106 11.9646 11.4106 12.1716V19.2535C11.4106 19.4604 11.5784 19.6283 11.7854 19.6283C11.9923 19.6283 12.1601 19.4604 12.1601 19.2535V12.1716C12.1601 11.9646 11.9923 11.7969 11.7854 11.7969Z" fill="white"/>
<path d="M8.56301 10.7634V19.9953C8.56301 20.541 8.76309 21.0534 9.11262 21.4211C9.46054 21.7898 9.94473 21.9991 10.4515 22H17.541C18.0479 21.9991 18.5321 21.7898 18.8799 21.4211C19.2294 21.0534 19.4295 20.541 19.4295 19.9953V10.7634C20.1243 10.5789 20.5745 9.90768 20.4816 9.19471C20.3885 8.48189 19.7812 7.94867 19.0622 7.94852H17.1438V7.48014C17.146 7.08626 16.9902 6.70804 16.7114 6.42979C16.4326 6.15169 16.0538 5.99683 15.6599 6.00005H12.3326C11.9387 5.99683 11.5599 6.15169 11.2811 6.42979C11.0023 6.70804 10.8465 7.08626 10.8487 7.48014V7.94852H8.93025C8.21128 7.94867 7.60399 8.48189 7.5109 9.19471C7.41796 9.90768 7.86819 10.5789 8.56301 10.7634ZM17.541 21.2506H10.4515C9.81081 21.2506 9.31242 20.7002 9.31242 19.9953V10.7963H18.6801V19.9953C18.6801 20.7002 18.1817 21.2506 17.541 21.2506ZM11.5981 7.48014C11.5956 7.28503 11.6723 7.09724 11.8108 6.9595C11.9491 6.82177 12.1374 6.74609 12.3326 6.74946H15.6599C15.8551 6.74609 16.0434 6.82177 16.1817 6.9595C16.3202 7.09709 16.3969 7.28503 16.3944 7.48014V7.94852H11.5981V7.48014ZM8.93025 8.69793H19.0622C19.4348 8.69793 19.7367 8.99989 19.7367 9.3724C19.7367 9.74491 19.4348 10.0469 19.0622 10.0469H8.93025C8.55774 10.0469 8.25578 9.74491 8.25578 9.3724C8.25578 8.99989 8.55774 8.69793 8.93025 8.69793Z" fill="white"/>
<path d="M13.9962 11.7969C13.7892 11.7969 13.6215 11.9646 13.6215 12.1716V19.2535C13.6215 19.4604 13.7892 19.6283 13.9962 19.6283C14.2031 19.6283 14.3709 19.4604 14.3709 19.2535V12.1716C14.3709 11.9646 14.2031 11.7969 13.9962 11.7969Z" fill="white"/>
</g>
<defs>
<clipPath id="clip0">
<rect width="16" height="16" fill="white" transform="translate(6 6)"/>
</clipPath>
</defs>
</svg>
